<svg xmlns="http://www.w3.org/2000/svg" viewBox="0 0 512 512">
  <defs>
    <linearGradient id="bg" x1="0%" y1="0%" x2="100%" y2="100%">
      <stop offset="0%" style="stop-color:#1e293b;stop-opacity:1" />
      <stop offset="100%" style="stop-color:#0f172a;stop-opacity:1" />
    </linearGradient>
    <linearGradient id="accent" x1="0%" y1="0%" x2="100%" y2="100%">
      <stop offset="0%" style="stop-color:#f97316;stop-opacity:1" />
      <stop offset="100%" style="stop-color:#06b6d4;stop-opacity:1" />
    </linearGradient>
  </defs>
  <rect width="512" height="512" rx="100" fill="url(#bg)"/>
  <!-- Fork -->
  <path d="M160 120 L160 260 Q160 280 180 280 L180 400" 
        stroke="url(#accent)" stroke-width="28" fill="none" stroke-linecap="round"/>
  <circle cx="160" cy="100" r="18" fill="url(#accent)"/>
  <circle cx="130" cy="140" r="14" fill="url(#accent)"/>
  <circle cx="190" cy="140" r="14" fill="url(#accent)"/>
  <!-- Knife -->
  <path d="M280 100 Q340 180 340 280 L340 400" 
        stroke="#94a3b8" stroke-width="24" fill="none" stroke-linecap="round"/>
  <path d="M280 100 L340 100 Q360 100 360 120 L360 160 Q340 180 340 180 L280 100" 
        fill="#94a3b8"/>
  <!-- Sparkle -->
  <path d="M380 80 L400 120 L440 100 L400 140 L420 180 L380 140 L340 160 L380 120 Z" 
        fill="#f97316"/>
</svg>
